<svg xmlns="http://www.w3.org/2000/svg" viewBox="0 0 602.71 123.86"><defs><style>.cls-1{font-size:108.48px;font-family:TRENDS, ShiShangZhongHeiJianTi;letter-spacing:0.26em;}.cls-1,.cls-2{fill:#fff;}.cls-2{fill-rule:evenodd;}</style></defs><title>资源 1</title><g id="图层_2" data-name="图层 2"><g id="_" data-name="ͼ"><text class="cls-1" transform="translate(192.64 93.88)">公务通</text><path class="cls-2" d="M29.11,44.62a55.6,55.6,0,0,0-1.62,14.23v7.84a37.19,37.19,0,0,0,23.65,34.53,66.48,66.48,0,0,0,20.58,22.64H61.93a62,62,0,0,1-51.47-27.6q-.21-2.66-.22-5.38A65.93,65.93,0,0,1,29.11,44.62Z"/><path class="cls-2" d="M66.55,52.83H124v64.93a6.1,6.1,0,0,1-6.1,6.1H83.34a66.48,66.48,0,0,1-20-17.59h0A66,66,0,0,1,54.3,89.88,65.83,65.83,0,0,0,92,103.74h5.35V72.33H50.12V69.26A16.48,16.48,0,0,1,66.55,52.83Z"/><path class="cls-2" d="M61.93,0h62V4.06c0,10.8-5.88,16.43-23,16.43-9.59,0-18.58.24-28.19.24l-3,.22a66.19,66.19,0,0,0-16,2.26,42.13,42.13,0,0,0-12.91,5,66.15,66.15,0,0,0-36,57.64A61.34,61.34,0,0,1,0,61.93H0A62.11,62.11,0,0,1,61.93,0Z"/></g></g></svg>